<svg xmlns="http://www.w3.org/2000/svg" xmlns:xlink="http://www.w3.org/1999/xlink" width="600" zoomAndPan="magnify" viewBox="0 0 450 449.999984" height="600" preserveAspectRatio="xMidYMid meet" version="1.0"><defs><filter x="0%" y="0%" width="100%" height="100%" id="cfa2f51933"><feColorMatrix values="0 0 0 0 1 0 0 0 0 1 0 0 0 0 1 0 0 0 1 0" color-interpolation-filters="sRGB"/></filter><g/><mask id="c017dfd5a8"><g filter="url(#cfa2f51933)"><rect x="-45" width="540" fill="#000000" y="-44.999998" height="539.99998" fill-opacity="0.22"/></g></mask><clipPath id="950c12884f"><path d="M 134 0 L 215 0 L 215 86 L 134 86 Z M 134 0 " clip-rule="nonzero"/></clipPath><clipPath id="97066e56e7"><rect x="0" width="234" y="0" height="181"/></clipPath><mask id="687672b2d6"><g filter="url(#cfa2f51933)"><rect x="-45" width="540" fill="#000000" y="-44.999998" height="539.99998" fill-opacity="0.22"/></g></mask><clipPath id="8331f7d6d9"><path d="M 10 50 L 450 50 L 450 397 L 10 397 Z M 10 50 " clip-rule="nonzero"/></clipPath><clipPath id="3a0c799190"><path d="M -9.558594 101.769531 L 441.273438 0.808594 L 517.980469 343.324219 L 67.148438 444.285156 Z M -9.558594 101.769531 " clip-rule="nonzero"/></clipPath><clipPath id="d26c464cb8"><path d="M -9.558594 101.769531 L 441.273438 0.808594 L 517.980469 343.324219 L 67.148438 444.285156 Z M -9.558594 101.769531 " clip-rule="nonzero"/></clipPath><clipPath id="a40a9ec679"><path d="M -9.558594 101.769531 L 441.273438 0.808594 L 517.980469 343.324219 L 67.148438 444.285156 Z M -9.558594 101.769531 " clip-rule="nonzero"/></clipPath><clipPath id="171643034d"><rect x="0" width="450" y="0" height="412"/></clipPath></defs><g mask="url(#c017dfd5a8)"><g transform="matrix(1, 0, 0, 1, 18, 0)"><g clip-path="url(#97066e56e7)"><g fill="#000000" fill-opacity="1"><g transform="translate(48.772977, 151.399149)"><g><path d="M 13.375 -9.703125 L -14.875 -60.6875 L -25.296875 -54.90625 C -26.671875 -54.21875 -27.726562 -54.101562 -28.46875 -54.5625 C -29.40625 -55.0625 -30.425781 -56.3125 -31.53125 -58.3125 C -33.289062 -61.488281 -33.226562 -63.597656 -31.34375 -64.640625 L -0.96875 -81.46875 C 2.257812 -83.257812 4.351562 -83.296875 5.3125 -81.578125 C 8.050781 -76.617188 8.085938 -73.398438 5.421875 -71.921875 L -3.984375 -66.828125 L 6.15625 -50.296875 L 25.0625 -16.375 C 25.644531 -15.320312 26 -14.617188 26.125 -14.265625 C 26.320312 -13.347656 25.453125 -12.351562 23.515625 -11.28125 C 17.890625 -8.164062 14.507812 -7.640625 13.375 -9.703125 Z M 13.375 -9.703125 "/></g></g></g><g fill="#000000" fill-opacity="1"><g transform="translate(87.990156, 129.672042)"><g><path d="M -31.53125 -63.21875 C -32.394531 -64.78125 -30.945312 -66.601562 -27.1875 -68.6875 C -23.4375 -70.769531 -20.75 -70.914062 -19.125 -69.125 L 16.984375 -30.5625 L 4.75 -71.546875 C 4.351562 -72.773438 4.410156 -73.785156 4.921875 -74.578125 C 5.429688 -75.378906 6.546875 -76.257812 8.265625 -77.21875 C 12.722656 -79.675781 15.914062 -79.878906 17.84375 -77.828125 L 46.6875 -47.015625 L 31.796875 -97.34375 C 31.390625 -98.707031 31.429688 -99.800781 31.921875 -100.625 C 32.421875 -101.445312 33.726562 -102.441406 35.84375 -103.609375 C 37.957031 -104.785156 39.40625 -105.410156 40.1875 -105.484375 C 40.976562 -105.554688 41.65625 -105.09375 42.21875 -104.09375 C 42.34375 -103.863281 42.453125 -103.597656 42.546875 -103.296875 L 61.5 -36.25 C 61.863281 -34.925781 61.894531 -33.90625 61.59375 -33.1875 C 61.289062 -32.476562 60.554688 -31.800781 59.390625 -31.15625 C 53.441406 -27.851562 49.640625 -27.054688 47.984375 -28.765625 L 22.71875 -53.46875 L 31.53125 -19.859375 C 31.925781 -18.484375 31.96875 -17.414062 31.65625 -16.65625 C 31.34375 -15.90625 30.628906 -15.222656 29.515625 -14.609375 C 23.566406 -11.304688 19.789062 -10.519531 18.1875 -12.25 L -31.1875 -62.765625 C -31.320312 -62.890625 -31.4375 -63.039062 -31.53125 -63.21875 Z M -31.53125 -63.21875 "/></g></g></g><g clip-path="url(#950c12884f)"><g fill="#000000" fill-opacity="1"><g transform="translate(167.092012, 85.848019)"><g><path d="M -14.0625 -32.671875 C -18.957031 -41.523438 -22.019531 -48.695312 -23.25 -54.1875 C -24.488281 -59.675781 -24.113281 -64.207031 -22.125 -67.78125 C -20.132812 -71.363281 -16.273438 -74.738281 -10.546875 -77.90625 C -4.816406 -81.082031 0.0820312 -82.5625 4.15625 -82.34375 C 8.238281 -82.132812 12.265625 -80.054688 16.234375 -76.109375 C 20.203125 -72.171875 24.648438 -65.75 29.578125 -56.84375 C 36.328125 -44.664062 39.4375 -35.375 38.90625 -28.96875 C 38.375 -22.5625 33.960938 -17.0625 25.671875 -12.46875 C 17.390625 -7.882812 10.382812 -7.0625 4.65625 -10 C -1.070312 -12.9375 -7.3125 -20.492188 -14.0625 -32.671875 Z M -8.75 -55.9375 C -7.925781 -53.675781 -6.945312 -51.457031 -5.8125 -49.28125 C -4.6875 -47.113281 -2.707031 -43.46875 0.125 -38.34375 C 2.96875 -33.226562 5.507812 -29.035156 7.75 -25.765625 C 10 -22.503906 11.703125 -20.488281 12.859375 -19.71875 C 14.015625 -18.945312 15.066406 -18.820312 16.015625 -19.34375 C 20.898438 -22.050781 23.820312 -24.320312 24.78125 -26.15625 C 25.113281 -26.851562 25.296875 -27.789062 25.328125 -28.96875 C 25.359375 -30.15625 25.222656 -31.285156 24.921875 -32.359375 C 24.628906 -33.429688 24.054688 -34.925781 23.203125 -36.84375 C 22.097656 -39.363281 19.828125 -43.722656 16.390625 -49.921875 C 12.953125 -56.117188 10.082031 -60.929688 7.78125 -64.359375 C 5.488281 -67.785156 3.691406 -69.988281 2.390625 -70.96875 C 1.085938 -71.957031 -0.0351562 -72.1875 -0.984375 -71.65625 C -3.210938 -70.425781 -4.953125 -69.332031 -6.203125 -68.375 C -7.453125 -67.425781 -8.394531 -66.285156 -9.03125 -64.953125 C -9.675781 -63.617188 -9.992188 -62.347656 -9.984375 -61.140625 C -9.984375 -59.941406 -9.570312 -58.207031 -8.75 -55.9375 Z M -8.75 -55.9375 "/></g></g></g></g></g></g></g><g mask="url(#687672b2d6)"><g transform="matrix(1, 0, 0, 1, 0, 38)"><g clip-path="url(#171643034d)"><g clip-path="url(#8331f7d6d9)"><g clip-path="url(#3a0c799190)"><g clip-path="url(#d26c464cb8)"><g clip-path="url(#a40a9ec679)"><path fill="#000000" d="M 460.746094 96.3125 C 459.59375 92.414062 459.09375 88.304688 457.460938 84.578125 C 455.832031 80.855469 452.691406 77.414062 448.648438 76.976562 C 446.847656 76.78125 445.046875 77.191406 443.28125 77.601562 C 440.742188 78.191406 438.199219 78.777344 435.660156 79.367188 C 434.210938 79.703125 432.722656 80.058594 431.511719 80.925781 C 430.273438 81.8125 429.445312 83.15625 428.65625 84.464844 C 427.09375 87.046875 425.476562 89.820312 425.582031 92.835938 C 425.679688 95.621094 427.257812 98.355469 426.621094 101.070312 C 421.707031 102.371094 416.796875 103.667969 411.882812 104.96875 C 411.519531 105.0625 411.140625 105.160156 410.769531 105.101562 C 409.652344 104.917969 409.253906 103.570312 408.839844 102.515625 C 408.164062 100.800781 406.753906 99.292969 404.953125 98.878906 C 403.152344 98.464844 401.03125 99.394531 400.429688 101.140625 C 399.550781 99.882812 397.902344 99.214844 396.398438 99.503906 C 394.890625 99.789062 393.609375 101.023438 393.257812 102.515625 C 392.253906 101.402344 390.425781 101.390625 389.109375 102.109375 C 387.796875 102.832031 386.898438 104.117188 386.125 105.402344 C 385.964844 105.667969 385.800781 105.945312 385.535156 106.101562 C 384.769531 106.5625 383.890625 105.792969 383.105469 105.371094 C 381.078125 104.28125 378.4375 105.734375 377.421875 107.800781 C 376.402344 109.863281 376.558594 112.285156 376.738281 114.578125 C 375.277344 115.035156 373.382812 116.492188 371.917969 116.949219 C 370.933594 112.183594 367.691406 107.9375 363.355469 105.730469 C 362.601562 105.347656 361.804688 105.019531 360.960938 104.9375 C 359.972656 104.847656 358.988281 105.101562 358.027344 105.351562 C 354.601562 106.25 351.171875 107.148438 347.746094 108.046875 C 345.253906 108.703125 342.710938 109.378906 340.570312 110.808594 C 338.429688 112.238281 336.726562 114.585938 336.765625 117.160156 C 336.785156 118.261719 337.113281 119.332031 337.4375 120.382812 C 340.015625 128.695312 342.59375 137.011719 345.167969 145.324219 C 345.492188 146.371094 345.824219 147.433594 346.421875 148.347656 C 347.589844 150.128906 349.597656 151.136719 351.511719 152.0625 C 352.789062 152.675781 354.105469 153.304688 355.519531 153.378906 C 356.964844 153.453125 358.367188 152.941406 359.726562 152.4375 C 364.03125 150.839844 368.332031 149.242188 372.636719 147.640625 C 373.148438 147.453125 373.683594 147.246094 374.03125 146.828125 C 374.339844 146.464844 374.464844 145.988281 374.644531 145.550781 C 375.144531 144.335938 376.097656 143.351562 376.589844 142.132812 C 378.230469 138.050781 374.144531 133.84375 374.097656 129.445312 C 374.097656 129.152344 374.121094 128.828125 374.324219 128.613281 C 374.558594 128.359375 374.941406 128.335938 375.285156 128.328125 C 376.527344 128.304688 377.765625 128.28125 379.007812 128.261719 C 381.320312 130.722656 384.675781 132.828125 387.644531 134.441406 C 393.058594 137.378906 399.195312 138.6875 404.878906 141.066406 C 406.058594 141.5625 407.25 142.125 408.105469 143.078125 C 409.023438 144.109375 409.449219 145.480469 409.847656 146.800781 C 414.082031 160.871094 418.359375 175.246094 417.878906 189.929688 C 417.675781 196.191406 416.605469 202.390625 416.03125 208.628906 C 404.917969 203.960938 393.386719 199.300781 382.273438 194.632812 C 379.234375 193.355469 376.183594 192.074219 373.003906 191.195312 C 370.023438 190.375 366.917969 189.90625 364.101562 188.632812 C 360.660156 187.078125 357.863281 184.425781 354.949219 182.027344 C 347.429688 175.839844 338.738281 171.089844 329.46875 168.105469 C 327.445312 167.453125 325.378906 166.882812 323.257812 166.703125 C 317.414062 166.214844 311.785156 168.710938 306.453125 171.152344 C 297.234375 172.980469 286.613281 172.914062 277.371094 171.21875 C 275.617188 170.898438 273.820312 170.492188 272.34375 169.488281 C 270.207031 168.039062 269.039062 165.5625 267.976562 163.207031 C 267.109375 161.292969 266.242188 159.378906 265.375 157.46875 C 264.5625 155.671875 263.746094 153.859375 263.339844 151.933594 C 262.652344 148.652344 263.203125 145.253906 263.75 141.949219 C 264.652344 136.527344 265.558594 131.105469 266.457031 125.679688 C 266.726562 124.070312 266.929688 122.386719 267.191406 120.773438 C 267.570312 118.445312 267.25 116.0625 266.929688 113.722656 C 266.425781 110.082031 265.925781 106.441406 265.425781 102.804688 C 265.320312 102.050781 265.210938 101.28125 264.832031 100.621094 C 264.515625 100.066406 264.035156 99.632812 263.644531 99.128906 C 262.65625 97.847656 262.332031 96.191406 261.976562 94.613281 C 258.976562 81.171875 251.453125 68.019531 239.183594 61.761719 C 237.539062 60.921875 235.832031 60.214844 234.125 59.511719 C 232.925781 59.015625 231.59375 57.988281 230.804688 56.957031 C 230.015625 55.921875 229.386719 54.761719 228.484375 53.828125 C 227.457031 52.761719 226.132812 52.039062 224.832031 51.332031 C 224.230469 51.007812 223.605469 50.671875 222.925781 50.601562 C 220.328125 50.335938 219.050781 53.464844 216.472656 53.867188 C 211.914062 54.574219 206.480469 56.007812 205.171875 60.429688 C 204.835938 61.554688 204.824219 62.777344 204.347656 63.851562 C 203.195312 66.453125 199.929688 67.191406 197.582031 68.808594 C 192.46875 72.328125 192.226562 79.351562 191.796875 84.933594 C 191.164062 93.234375 192.402344 100.941406 193.574219 109.089844 C 194.101562 112.757812 193.621094 116.523438 194.355469 120.144531 C 195.035156 123.511719 196.351562 127.480469 197.632812 130.671875 C 199.070312 134.257812 201.671875 136.988281 203.8125 140.101562 C 206.007812 140.296875 208.015625 141.949219 209.273438 143.851562 C 210.757812 146.097656 211.582031 148.738281 213.085938 150.96875 C 215.007812 153.816406 218.246094 155.960938 219.613281 159.171875 C 221.765625 164.222656 222.652344 169.601562 223.464844 174.992188 C 224.625 182.671875 218.585938 187.101562 211.90625 189.039062 C 206.59375 190.582031 201.011719 191.324219 195.597656 192.402344 C 186.21875 194.261719 177.761719 195.207031 169.355469 200.25 C 161.765625 204.804688 155.3125 211.300781 151.050781 219.078125 C 147.484375 225.589844 145.382812 232.855469 141.488281 239.179688 C 138.175781 244.566406 133.667969 249.097656 129.382812 253.75 C 120.660156 263.21875 112.695312 273.390625 105.59375 284.128906 C 95.9375 271.90625 91.632812 256.050781 88.308594 240.832031 C 86.980469 234.746094 85.773438 228.632812 84.6875 222.496094 C 83.789062 217.40625 83.121094 211.65625 86.234375 207.535156 C 88.546875 204.472656 91.023438 201.609375 93.644531 198.8125 C 96.960938 195.273438 100.585938 191.335938 100.71875 186.492188 C 102.007812 186.109375 103.296875 185.726562 104.585938 185.34375 C 105.585938 187.003906 105.050781 189.148438 105.492188 191.039062 C 105.964844 193.054688 107.507812 194.621094 108.980469 196.078125 C 110.132812 197.210938 111.34375 198.382812 112.882812 198.875 C 114.269531 199.316406 115.769531 199.152344 117.214844 198.984375 L 128.773438 197.648438 C 131.339844 197.347656 134.097656 196.96875 135.992188 195.207031 C 137.050781 194.226562 137.730469 192.894531 138.152344 191.511719 C 139.023438 188.648438 138.835938 185.585938 138.632812 182.597656 C 138.21875 176.53125 137.761719 170.445312 136.574219 164.480469 C 136.4375 163.792969 136.285156 163.09375 135.96875 162.46875 C 135.546875 161.628906 134.855469 160.964844 134.171875 160.316406 C 132.390625 158.621094 130.609375 156.925781 128.828125 155.226562 C 128.429688 154.847656 128.019531 154.460938 127.511719 154.246094 C 126.789062 153.945312 125.96875 154.03125 125.191406 154.125 C 121.109375 154.617188 117.027344 155.109375 112.949219 155.601562 C 110.84375 155.855469 108.710938 156.117188 106.746094 156.90625 C 104.777344 157.699219 102.964844 159.09375 102.136719 161.046875 C 101.503906 162.539062 101.496094 164.214844 101.542969 165.839844 C 101.625 168.5625 101.839844 171.285156 102.179688 173.992188 C 98.078125 174.503906 93.480469 172.863281 90.691406 169.808594 C 90.15625 169.222656 89.664062 168.574219 89.007812 168.121094 C 86.683594 166.519531 83.207031 168.179688 82.113281 170.777344 C 79.699219 168.726562 75.472656 169.484375 73.921875 172.246094 C 71.78125 171.230469 69.074219 171.542969 67.222656 173.019531 C 66.917969 173.261719 66.609375 173.546875 66.222656 173.585938 C 65.820312 173.625 65.449219 173.394531 65.085938 173.226562 C 62.84375 172.179688 60.058594 173.4375 58.621094 175.449219 C 57.183594 177.460938 56.78125 180.015625 56.53125 182.476562 C 53.847656 183.449219 50.976562 183.894531 48.125 183.773438 C 46.863281 182.609375 47.035156 180.621094 46.652344 178.945312 C 45.976562 175.984375 43.445312 173.867188 41.058594 171.980469 C 40.175781 171.277344 39.257812 170.5625 38.171875 170.25 C 36.90625 169.890625 35.558594 170.121094 34.265625 170.355469 L 21.636719 172.625 C 17.960938 173.289062 13.851562 174.234375 11.898438 177.414062 C 10.25 180.097656 10.695312 183.511719 11.195312 186.617188 C 12.140625 192.5 13.085938 198.378906 14.03125 204.261719 C 14.238281 205.570312 14.457031 206.90625 15.035156 208.101562 C 15.773438 209.632812 17.042969 210.832031 18.285156 211.992188 C 19.886719 213.484375 21.613281 215.046875 23.773438 215.429688 C 25 215.648438 26.261719 215.460938 27.496094 215.273438 C 32.117188 214.570312 36.738281 213.867188 41.359375 213.160156 C 42.792969 212.941406 44.269531 212.707031 45.511719 211.960938 C 47.761719 210.605469 48.78125 207.800781 48.796875 205.171875 C 48.808594 202.542969 48 199.992188 47.394531 197.4375 C 47.253906 196.84375 47.136719 196.175781 47.457031 195.65625 C 47.636719 195.367188 47.925781 195.171875 48.214844 194.988281 C 50.195312 193.75 52.425781 192.914062 54.730469 192.542969 C 55.378906 200.621094 56.347656 208.9375 58.074219 216.851562 C 61.75 233.699219 64.359375 250.445312 66.890625 267.503906 C 67.675781 272.804688 68.421875 278.113281 69.472656 283.367188 C 71.359375 292.773438 74.234375 301.949219 77.101562 311.105469 C 78.835938 316.648438 80.570312 322.1875 82.304688 327.730469 C 83.398438 331.21875 88.078125 331.515625 91.730469 331.328125 C 95.148438 331.152344 98.59375 330.867188 101.859375 329.847656 C 104.722656 328.949219 107.378906 327.503906 109.972656 326 C 125.742188 316.835938 139.949219 304.996094 151.800781 291.140625 C 159.054688 282.660156 165.410156 273.457031 171.753906 264.273438 C 174.445312 260.371094 177.140625 256.46875 179.835938 252.566406 C 180.40625 252.960938 180.96875 252.734375 181.539062 253.125 C 184.351562 255.0625 187.164062 257 189.976562 258.941406 C 190.820312 259.519531 191.671875 260.105469 192.371094 260.855469 C 194.433594 263.050781 194.902344 266.253906 196.144531 268.996094 C 197.121094 271.148438 198.589844 273.039062 199.664062 275.144531 C 201.125 278.015625 201.816406 281.207031 202.964844 284.21875 C 203.949219 286.792969 205.269531 289.226562 206.515625 291.691406 C 209.761719 298.109375 212.53125 304.753906 215.296875 311.394531 C 219.003906 320.304688 222.714844 329.214844 226.425781 338.125 C 227.667969 341.113281 227.414062 344.039062 227.015625 347.25 C 226.707031 349.703125 225.867188 352.050781 225.222656 354.4375 C 224.605469 356.722656 224.167969 359.054688 223.730469 361.382812 C 222.121094 369.949219 220.511719 378.523438 219.328125 387.160156 C 223.34375 391.453125 229.296875 392.832031 235.074219 393.941406 C 236.804688 394.273438 238.539062 394.605469 240.269531 394.9375 C 242.683594 395.402344 245.097656 395.867188 247.546875 396.085938 C 250.230469 396.328125 252.929688 396.273438 255.617188 396.160156 C 288.449219 394.785156 321.625 384.148438 346.113281 362.238281 C 347.929688 360.609375 346.984375 357.273438 345.976562 355.054688 C 343.765625 350.199219 341.539062 345.308594 338.40625 340.992188 C 337.132812 339.234375 335.707031 337.570312 334.617188 335.691406 C 333.980469 334.589844 333.464844 333.425781 332.980469 332.246094 C 329.523438 323.839844 327.734375 314.75 327.75 305.65625 C 327.75 303.832031 327.824219 301.996094 327.550781 300.191406 C 327.222656 298.019531 326.398438 295.957031 325.878906 293.824219 C 324.503906 288.214844 325.238281 282.335938 325.976562 276.609375 C 326.546875 272.207031 324.066406 268.703125 323.898438 264.269531 C 323.742188 260.164062 324.164062 256.019531 323.519531 251.960938 C 323.007812 248.746094 321.835938 245.636719 321.6875 242.382812 C 321.5 238.359375 322.910156 234.386719 324.996094 230.9375 C 327.078125 227.488281 329.816406 224.488281 332.535156 221.511719 C 337.269531 220.804688 341.976562 222.582031 346.253906 224.730469 C 350.53125 226.878906 354.570312 229.554688 359.089844 231.136719 C 361.914062 232.125 364.875 232.664062 367.734375 233.546875 C 372.628906 235.058594 377.175781 237.558594 382.085938 239.027344 C 385.011719 239.902344 388.03125 240.402344 391.046875 240.898438 L 401.128906 242.5625 C 410.386719 244.09375 419.675781 245.625 429.050781 245.9375 C 435.742188 246.164062 442.648438 245.71875 448.707031 242.878906 C 450.738281 241.925781 452.707031 240.660156 453.953125 238.792969 C 455.195312 236.921875 455.574219 234.355469 454.425781 232.429688 C 452.503906 229.207031 453.152344 225.148438 452.488281 221.457031 C 451.546875 216.242188 451.203125 210.9375 450.359375 205.703125 C 449.167969 198.320312 446.984375 191.140625 444.804688 183.984375 C 442.09375 175.074219 439.382812 166.164062 436.667969 157.253906 C 435.820312 154.457031 434.96875 151.660156 434.023438 148.894531 C 432.039062 143.085938 429.621094 137.273438 429.476562 131.136719 C 429.328125 125.085938 425.132812 119.804688 422.617188 114.296875 C 424.90625 114.765625 427.273438 111.449219 429.140625 112.859375 C 429.660156 113.253906 429.898438 113.910156 430.128906 114.519531 C 431.46875 118.105469 433.484375 121.4375 436.039062 124.296875 C 437.199219 125.59375 438.652344 126.871094 440.394531 126.875 C 441.03125 126.875 441.652344 126.699219 442.261719 126.527344 L 461 121.242188 C 461.511719 121.097656 462.035156 120.949219 462.480469 120.652344 C 462.996094 120.3125 463.371094 119.792969 463.683594 119.257812 C 465.710938 115.820312 465.597656 111.5 464.617188 107.632812 C 463.636719 103.765625 461.878906 100.140625 460.746094 96.3125 Z M 460.746094 96.3125 " fill-opacity="1" fill-rule="nonzero"/></g></g></g></g></g></g></g></svg>