<svg xmlns="http://www.w3.org/2000/svg" xmlns:xlink="http://www.w3.org/1999/xlink" width="600" zoomAndPan="magnify" viewBox="0 0 450 449.999984" height="600" preserveAspectRatio="xMidYMid meet" version="1.0"><defs><filter x="0%" y="0%" width="100%" height="100%" id="112dabb6d9"><feColorMatrix values="0 0 0 0 1 0 0 0 0 1 0 0 0 0 1 0 0 0 1 0" color-interpolation-filters="sRGB"/></filter><g/><mask id="6c464bfa10"><g filter="url(#112dabb6d9)"><rect x="-45" width="540" fill="#000000" y="-44.999998" height="539.99998" fill-opacity="0.22"/></g></mask><clipPath id="4d54aa9841"><path d="M 134 0 L 215 0 L 215 86 L 134 86 Z M 134 0 " clip-rule="nonzero"/></clipPath><clipPath id="c09bb90b1c"><rect x="0" width="234" y="0" height="181"/></clipPath><mask id="59e63de588"><g filter="url(#112dabb6d9)"><rect x="-45" width="540" fill="#000000" y="-44.999998" height="539.99998" fill-opacity="0.22"/></g></mask><clipPath id="7846ae261e"><path d="M 204 262 L 394 262 L 394 429 L 204 429 Z M 204 262 " clip-rule="nonzero"/></clipPath><clipPath id="91909f65ec"><path d="M -20.980469 145.949219 L 428.503906 0.277344 L 558.21875 400.535156 L 108.734375 546.203125 Z M -20.980469 145.949219 " clip-rule="nonzero"/></clipPath><clipPath id="d29bec64df"><path d="M 428.847656 0.167969 L -20.636719 145.835938 L 109.082031 546.09375 L 558.566406 400.421875 Z M 428.847656 0.167969 " clip-rule="nonzero"/></clipPath><clipPath id="ef8ea1af5c"><path d="M 428.847656 0.167969 L -20.636719 145.835938 L 109.082031 546.09375 L 558.566406 400.421875 Z M 428.847656 0.167969 " clip-rule="nonzero"/></clipPath><clipPath id="54377cc48e"><path d="M 144 376 L 450 376 L 450 429 L 144 429 Z M 144 376 " clip-rule="nonzero"/></clipPath><clipPath id="353898e78b"><path d="M -20.980469 145.949219 L 428.503906 0.277344 L 558.21875 400.535156 L 108.734375 546.203125 Z M -20.980469 145.949219 " clip-rule="nonzero"/></clipPath><clipPath id="97fcafcead"><path d="M 428.847656 0.167969 L -20.636719 145.835938 L 109.082031 546.09375 L 558.566406 400.421875 Z M 428.847656 0.167969 " clip-rule="nonzero"/></clipPath><clipPath id="4995e11c12"><path d="M 428.847656 0.167969 L -20.636719 145.835938 L 109.082031 546.09375 L 558.566406 400.421875 Z M 428.847656 0.167969 " clip-rule="nonzero"/></clipPath><clipPath id="34d683aa3c"><path d="M 185 78 L 264 78 L 264 214 L 185 214 Z M 185 78 " clip-rule="nonzero"/></clipPath><clipPath id="c15241b63e"><path d="M -20.980469 145.949219 L 428.503906 0.277344 L 558.21875 400.535156 L 108.734375 546.203125 Z M -20.980469 145.949219 " clip-rule="nonzero"/></clipPath><clipPath id="9ac2775246"><path d="M 428.847656 0.167969 L -20.636719 145.835938 L 109.082031 546.09375 L 558.566406 400.421875 Z M 428.847656 0.167969 " clip-rule="nonzero"/></clipPath><clipPath id="abbe92da7b"><path d="M 428.847656 0.167969 L -20.636719 145.835938 L 109.082031 546.09375 L 558.566406 400.421875 Z M 428.847656 0.167969 " clip-rule="nonzero"/></clipPath><clipPath id="5d971b9970"><path d="M 364 45 L 439 45 L 439 179 L 364 179 Z M 364 45 " clip-rule="nonzero"/></clipPath><clipPath id="07bfe2f592"><path d="M -20.980469 145.949219 L 428.503906 0.277344 L 558.21875 400.535156 L 108.734375 546.203125 Z M -20.980469 145.949219 " clip-rule="nonzero"/></clipPath><clipPath id="3d30b09eb4"><path d="M 428.847656 0.167969 L -20.636719 145.835938 L 109.082031 546.09375 L 558.566406 400.421875 Z M 428.847656 0.167969 " clip-rule="nonzero"/></clipPath><clipPath id="3da015d87e"><path d="M 428.847656 0.167969 L -20.636719 145.835938 L 109.082031 546.09375 L 558.566406 400.421875 Z M 428.847656 0.167969 " clip-rule="nonzero"/></clipPath><clipPath id="ebbe7d0945"><path d="M 30 154 L 105 154 L 105 287 L 30 287 Z M 30 154 " clip-rule="nonzero"/></clipPath><clipPath id="0507d60287"><path d="M -20.980469 145.949219 L 428.503906 0.277344 L 558.21875 400.535156 L 108.734375 546.203125 Z M -20.980469 145.949219 " clip-rule="nonzero"/></clipPath><clipPath id="2531ef4903"><path d="M 428.847656 0.167969 L -20.636719 145.835938 L 109.082031 546.09375 L 558.566406 400.421875 Z M 428.847656 0.167969 " clip-rule="nonzero"/></clipPath><clipPath id="e531e0ffb4"><path d="M 428.847656 0.167969 L -20.636719 145.835938 L 109.082031 546.09375 L 558.566406 400.421875 Z M 428.847656 0.167969 " clip-rule="nonzero"/></clipPath><clipPath id="7a2d32d09c"><path d="M 270 119 L 355 119 L 355 225 L 270 225 Z M 270 119 " clip-rule="nonzero"/></clipPath><clipPath id="cb4ac231ee"><path d="M -20.980469 145.949219 L 428.503906 0.277344 L 558.21875 400.535156 L 108.734375 546.203125 Z M -20.980469 145.949219 " clip-rule="nonzero"/></clipPath><clipPath id="0dc008e97d"><path d="M 428.847656 0.167969 L -20.636719 145.835938 L 109.082031 546.09375 L 558.566406 400.421875 Z M 428.847656 0.167969 " clip-rule="nonzero"/></clipPath><clipPath id="ce4f0a7dc9"><path d="M 428.847656 0.167969 L -20.636719 145.835938 L 109.082031 546.09375 L 558.566406 400.421875 Z M 428.847656 0.167969 " clip-rule="nonzero"/></clipPath><clipPath id="8d2db26aea"><path d="M 119 181 L 211 181 L 211 279 L 119 279 Z M 119 181 " clip-rule="nonzero"/></clipPath><clipPath id="fecfdfcb63"><path d="M -20.980469 145.949219 L 428.503906 0.277344 L 558.21875 400.535156 L 108.734375 546.203125 Z M -20.980469 145.949219 " clip-rule="nonzero"/></clipPath><clipPath id="a1debd7b71"><path d="M 428.847656 0.167969 L -20.636719 145.835938 L 109.082031 546.09375 L 558.566406 400.421875 Z M 428.847656 0.167969 " clip-rule="nonzero"/></clipPath><clipPath id="6944f1799c"><path d="M 428.847656 0.167969 L -20.636719 145.835938 L 109.082031 546.09375 L 558.566406 400.421875 Z M 428.847656 0.167969 " clip-rule="nonzero"/></clipPath><clipPath id="b791024eb7"><path d="M 210 181 L 296 181 L 296 276 L 210 276 Z M 210 181 " clip-rule="nonzero"/></clipPath><clipPath id="3a8e703b09"><path d="M -20.980469 145.949219 L 428.503906 0.277344 L 558.21875 400.535156 L 108.734375 546.203125 Z M -20.980469 145.949219 " clip-rule="nonzero"/></clipPath><clipPath id="55e0a4a5e7"><path d="M 428.847656 0.167969 L -20.636719 145.835938 L 109.082031 546.09375 L 558.566406 400.421875 Z M 428.847656 0.167969 " clip-rule="nonzero"/></clipPath><clipPath id="2678724f42"><path d="M 428.847656 0.167969 L -20.636719 145.835938 L 109.082031 546.09375 L 558.566406 400.421875 Z M 428.847656 0.167969 " clip-rule="nonzero"/></clipPath><clipPath id="f40894f549"><path d="M 139 403 L 450 403 L 450 429 L 139 429 Z M 139 403 " clip-rule="nonzero"/></clipPath><clipPath id="7ecaf7c2bc"><path d="M -20.980469 145.949219 L 428.503906 0.277344 L 558.21875 400.535156 L 108.734375 546.203125 Z M -20.980469 145.949219 " clip-rule="nonzero"/></clipPath><clipPath id="970616ab3f"><path d="M 428.847656 0.167969 L -20.636719 145.835938 L 109.082031 546.09375 L 558.566406 400.421875 Z M 428.847656 0.167969 " clip-rule="nonzero"/></clipPath><clipPath id="94c0e060d4"><path d="M 428.847656 0.167969 L -20.636719 145.835938 L 109.082031 546.09375 L 558.566406 400.421875 Z M 428.847656 0.167969 " clip-rule="nonzero"/></clipPath><clipPath id="cf35810c25"><path d="M 413 57 L 450 57 L 450 145 L 413 145 Z M 413 57 " clip-rule="nonzero"/></clipPath><clipPath id="eaaa454550"><path d="M -20.980469 145.949219 L 428.503906 0.277344 L 558.21875 400.535156 L 108.734375 546.203125 Z M -20.980469 145.949219 " clip-rule="nonzero"/></clipPath><clipPath id="b83334a7e5"><path d="M 428.847656 0.167969 L -20.636719 145.835938 L 109.082031 546.09375 L 558.566406 400.421875 Z M 428.847656 0.167969 " clip-rule="nonzero"/></clipPath><clipPath id="ab02244591"><path d="M 428.847656 0.167969 L -20.636719 145.835938 L 109.082031 546.09375 L 558.566406 400.421875 Z M 428.847656 0.167969 " clip-rule="nonzero"/></clipPath><clipPath id="f9018dc95b"><path d="M 6 187 L 55 187 L 55 275 L 6 275 Z M 6 187 " clip-rule="nonzero"/></clipPath><clipPath id="b95621e2f5"><path d="M -20.980469 145.949219 L 428.503906 0.277344 L 558.21875 400.535156 L 108.734375 546.203125 Z M -20.980469 145.949219 " clip-rule="nonzero"/></clipPath><clipPath id="768cdfb4f5"><path d="M 428.847656 0.167969 L -20.636719 145.835938 L 109.082031 546.09375 L 558.566406 400.421875 Z M 428.847656 0.167969 " clip-rule="nonzero"/></clipPath><clipPath id="76e70e75e7"><path d="M 428.847656 0.167969 L -20.636719 145.835938 L 109.082031 546.09375 L 558.566406 400.421875 Z M 428.847656 0.167969 " clip-rule="nonzero"/></clipPath><clipPath id="7630a86d8b"><path d="M 268 135 L 313 135 L 313 154 L 268 154 Z M 268 135 " clip-rule="nonzero"/></clipPath><clipPath id="666276dbeb"><path d="M -20.980469 145.949219 L 428.503906 0.277344 L 558.21875 400.535156 L 108.734375 546.203125 Z M -20.980469 145.949219 " clip-rule="nonzero"/></clipPath><clipPath id="d62bce81ab"><path d="M 428.847656 0.167969 L -20.636719 145.835938 L 109.082031 546.09375 L 558.566406 400.421875 Z M 428.847656 0.167969 " clip-rule="nonzero"/></clipPath><clipPath id="bd30af7907"><path d="M 428.847656 0.167969 L -20.636719 145.835938 L 109.082031 546.09375 L 558.566406 400.421875 Z M 428.847656 0.167969 " clip-rule="nonzero"/></clipPath><clipPath id="521936648f"><path d="M 155 172 L 196 172 L 196 196 L 155 196 Z M 155 172 " clip-rule="nonzero"/></clipPath><clipPath id="d56b2134c5"><path d="M -20.980469 145.949219 L 428.503906 0.277344 L 558.21875 400.535156 L 108.734375 546.203125 Z M -20.980469 145.949219 " clip-rule="nonzero"/></clipPath><clipPath id="5dcfdf9d7c"><path d="M 428.847656 0.167969 L -20.636719 145.835938 L 109.082031 546.09375 L 558.566406 400.421875 Z M 428.847656 0.167969 " clip-rule="nonzero"/></clipPath><clipPath id="267c93a19c"><path d="M 428.847656 0.167969 L -20.636719 145.835938 L 109.082031 546.09375 L 558.566406 400.421875 Z M 428.847656 0.167969 " clip-rule="nonzero"/></clipPath><clipPath id="a04ee0473d"><path d="M 351 114 L 378 114 L 378 132 L 351 132 Z M 351 114 " clip-rule="nonzero"/></clipPath><clipPath id="7b563bf3c6"><path d="M -20.980469 145.949219 L 428.503906 0.277344 L 558.21875 400.535156 L 108.734375 546.203125 Z M -20.980469 145.949219 " clip-rule="nonzero"/></clipPath><clipPath id="9f40b1299b"><path d="M 428.847656 0.167969 L -20.636719 145.835938 L 109.082031 546.09375 L 558.566406 400.421875 Z M 428.847656 0.167969 " clip-rule="nonzero"/></clipPath><clipPath id="7fb6659494"><path d="M 428.847656 0.167969 L -20.636719 145.835938 L 109.082031 546.09375 L 558.566406 400.421875 Z M 428.847656 0.167969 " clip-rule="nonzero"/></clipPath><clipPath id="135a06ecb7"><path d="M 90 199 L 116 199 L 116 217 L 90 217 Z M 90 199 " clip-rule="nonzero"/></clipPath><clipPath id="635c5d223c"><path d="M -20.980469 145.949219 L 428.503906 0.277344 L 558.21875 400.535156 L 108.734375 546.203125 Z M -20.980469 145.949219 " clip-rule="nonzero"/></clipPath><clipPath id="7397585ac3"><path d="M 428.847656 0.167969 L -20.636719 145.835938 L 109.082031 546.09375 L 558.566406 400.421875 Z M 428.847656 0.167969 " clip-rule="nonzero"/></clipPath><clipPath id="c3a22b79ba"><path d="M 428.847656 0.167969 L -20.636719 145.835938 L 109.082031 546.09375 L 558.566406 400.421875 Z M 428.847656 0.167969 " clip-rule="nonzero"/></clipPath><clipPath id="386d60b6c3"><path d="M 30 171 L 43 171 L 43 206 L 30 206 Z M 30 171 " clip-rule="nonzero"/></clipPath><clipPath id="f8c7e24df4"><path d="M -20.980469 145.949219 L 428.503906 0.277344 L 558.21875 400.535156 L 108.734375 546.203125 Z M -20.980469 145.949219 " clip-rule="nonzero"/></clipPath><clipPath id="318c600a97"><path d="M 428.847656 0.167969 L -20.636719 145.835938 L 109.082031 546.09375 L 558.566406 400.421875 Z M 428.847656 0.167969 " clip-rule="nonzero"/></clipPath><clipPath id="44a121df88"><path d="M 428.847656 0.167969 L -20.636719 145.835938 L 109.082031 546.09375 L 558.566406 400.421875 Z M 428.847656 0.167969 " clip-rule="nonzero"/></clipPath><clipPath id="8a03a13f31"><path d="M 56 248 L 68 248 L 68 283 L 56 283 Z M 56 248 " clip-rule="nonzero"/></clipPath><clipPath id="08863cdaea"><path d="M -20.980469 145.949219 L 428.503906 0.277344 L 558.21875 400.535156 L 108.734375 546.203125 Z M -20.980469 145.949219 " clip-rule="nonzero"/></clipPath><clipPath id="d69f6dd04a"><path d="M 428.847656 0.167969 L -20.636719 145.835938 L 109.082031 546.09375 L 558.566406 400.421875 Z M 428.847656 0.167969 " clip-rule="nonzero"/></clipPath><clipPath id="2063482bc0"><path d="M 428.847656 0.167969 L -20.636719 145.835938 L 109.082031 546.09375 L 558.566406 400.421875 Z M 428.847656 0.167969 " clip-rule="nonzero"/></clipPath><clipPath id="36237c8445"><path d="M 30 248 L 37 248 L 37 270 L 30 270 Z M 30 248 " clip-rule="nonzero"/></clipPath><clipPath id="02a1933711"><path d="M -20.980469 145.949219 L 428.503906 0.277344 L 558.21875 400.535156 L 108.734375 546.203125 Z M -20.980469 145.949219 " clip-rule="nonzero"/></clipPath><clipPath id="f1c3b49ade"><path d="M 428.847656 0.167969 L -20.636719 145.835938 L 109.082031 546.09375 L 558.566406 400.421875 Z M 428.847656 0.167969 " clip-rule="nonzero"/></clipPath><clipPath id="ef022e0d65"><path d="M 428.847656 0.167969 L -20.636719 145.835938 L 109.082031 546.09375 L 558.566406 400.421875 Z M 428.847656 0.167969 " clip-rule="nonzero"/></clipPath><clipPath id="bb3973b2e4"><path d="M 13 196 L 19 196 L 19 213 L 13 213 Z M 13 196 " clip-rule="nonzero"/></clipPath><clipPath id="3f6a99e7a3"><path d="M -20.980469 145.949219 L 428.503906 0.277344 L 558.21875 400.535156 L 108.734375 546.203125 Z M -20.980469 145.949219 " clip-rule="nonzero"/></clipPath><clipPath id="2a558752d3"><path d="M 428.847656 0.167969 L -20.636719 145.835938 L 109.082031 546.09375 L 558.566406 400.421875 Z M 428.847656 0.167969 " clip-rule="nonzero"/></clipPath><clipPath id="9dce16d17b"><path d="M 428.847656 0.167969 L -20.636719 145.835938 L 109.082031 546.09375 L 558.566406 400.421875 Z M 428.847656 0.167969 " clip-rule="nonzero"/></clipPath><clipPath id="5e0254e217"><path d="M 53 241 L 55 241 L 55 245 L 53 245 Z M 53 241 " clip-rule="nonzero"/></clipPath><clipPath id="d1b455a7ce"><path d="M -20.980469 145.949219 L 428.503906 0.277344 L 558.21875 400.535156 L 108.734375 546.203125 Z M -20.980469 145.949219 " clip-rule="nonzero"/></clipPath><clipPath id="2c36401ec0"><path d="M 428.847656 0.167969 L -20.636719 145.835938 L 109.082031 546.09375 L 558.566406 400.421875 Z M 428.847656 0.167969 " clip-rule="nonzero"/></clipPath><clipPath id="3bdd5f4c10"><path d="M 428.847656 0.167969 L -20.636719 145.835938 L 109.082031 546.09375 L 558.566406 400.421875 Z M 428.847656 0.167969 " clip-rule="nonzero"/></clipPath><clipPath id="3a7817316f"><path d="M 19 217 L 21 217 L 21 219 L 19 219 Z M 19 217 " clip-rule="nonzero"/></clipPath><clipPath id="7b7d713def"><path d="M -20.980469 145.949219 L 428.503906 0.277344 L 558.21875 400.535156 L 108.734375 546.203125 Z M -20.980469 145.949219 " clip-rule="nonzero"/></clipPath><clipPath id="d6687ea820"><path d="M 428.847656 0.167969 L -20.636719 145.835938 L 109.082031 546.09375 L 558.566406 400.421875 Z M 428.847656 0.167969 " clip-rule="nonzero"/></clipPath><clipPath id="1438047b3f"><path d="M 428.847656 0.167969 L -20.636719 145.835938 L 109.082031 546.09375 L 558.566406 400.421875 Z M 428.847656 0.167969 " clip-rule="nonzero"/></clipPath><clipPath id="0eebaf7699"><path d="M 49 228 L 50 228 L 50 229 L 49 229 Z M 49 228 " clip-rule="nonzero"/></clipPath><clipPath id="f66a188ce2"><path d="M -20.980469 145.949219 L 428.503906 0.277344 L 558.21875 400.535156 L 108.734375 546.203125 Z M -20.980469 145.949219 " clip-rule="nonzero"/></clipPath><clipPath id="690b85ff54"><path d="M 428.847656 0.167969 L -20.636719 145.835938 L 109.082031 546.09375 L 558.566406 400.421875 Z M 428.847656 0.167969 " clip-rule="nonzero"/></clipPath><clipPath id="251124d1d2"><path d="M 428.847656 0.167969 L -20.636719 145.835938 L 109.082031 546.09375 L 558.566406 400.421875 Z M 428.847656 0.167969 " clip-rule="nonzero"/></clipPath><clipPath id="5434451b6f"><path d="M 65 220 L 66 220 L 66 224 L 65 224 Z M 65 220 " clip-rule="nonzero"/></clipPath><clipPath id="4704937805"><path d="M -20.980469 145.949219 L 428.503906 0.277344 L 558.21875 400.535156 L 108.734375 546.203125 Z M -20.980469 145.949219 " clip-rule="nonzero"/></clipPath><clipPath id="253b426a21"><path d="M 428.847656 0.167969 L -20.636719 145.835938 L 109.082031 546.09375 L 558.566406 400.421875 Z M 428.847656 0.167969 " clip-rule="nonzero"/></clipPath><clipPath id="91c844714d"><path d="M 428.847656 0.167969 L -20.636719 145.835938 L 109.082031 546.09375 L 558.566406 400.421875 Z M 428.847656 0.167969 " clip-rule="nonzero"/></clipPath><clipPath id="25b0ee8a3d"><path d="M 53 184 L 54 184 L 54 186 L 53 186 Z M 53 184 " clip-rule="nonzero"/></clipPath><clipPath id="de25e87f3e"><path d="M -20.980469 145.949219 L 428.503906 0.277344 L 558.21875 400.535156 L 108.734375 546.203125 Z M -20.980469 145.949219 " clip-rule="nonzero"/></clipPath><clipPath id="ee530f54c5"><path d="M 428.847656 0.167969 L -20.636719 145.835938 L 109.082031 546.09375 L 558.566406 400.421875 Z M 428.847656 0.167969 " clip-rule="nonzero"/></clipPath><clipPath id="2fec136980"><path d="M 428.847656 0.167969 L -20.636719 145.835938 L 109.082031 546.09375 L 558.566406 400.421875 Z M 428.847656 0.167969 " clip-rule="nonzero"/></clipPath><clipPath id="0b28387089"><path d="M 29 246 L 30 246 L 30 248 L 29 248 Z M 29 246 " clip-rule="nonzero"/></clipPath><clipPath id="4d724deec6"><path d="M -20.980469 145.949219 L 428.503906 0.277344 L 558.21875 400.535156 L 108.734375 546.203125 Z M -20.980469 145.949219 " clip-rule="nonzero"/></clipPath><clipPath id="1c2de9d566"><path d="M 428.847656 0.167969 L -20.636719 145.835938 L 109.082031 546.09375 L 558.566406 400.421875 Z M 428.847656 0.167969 " clip-rule="nonzero"/></clipPath><clipPath id="733c347b98"><path d="M 428.847656 0.167969 L -20.636719 145.835938 L 109.082031 546.09375 L 558.566406 400.421875 Z M 428.847656 0.167969 " clip-rule="nonzero"/></clipPath><clipPath id="4c2afa248b"><rect x="0" width="450" y="0" height="429"/></clipPath></defs><g mask="url(#6c464bfa10)"><g transform="matrix(1, 0, 0, 1, 18, 0)"><g clip-path="url(#c09bb90b1c)"><g fill="#000000" fill-opacity="1"><g transform="translate(48.772977, 151.399149)"><g><path d="M 13.375 -9.703125 L -14.875 -60.6875 L -25.296875 -54.90625 C -26.671875 -54.21875 -27.726562 -54.101562 -28.46875 -54.5625 C -29.40625 -55.0625 -30.425781 -56.3125 -31.53125 -58.3125 C -33.289062 -61.488281 -33.226562 -63.597656 -31.34375 -64.640625 L -0.96875 -81.46875 C 2.257812 -83.257812 4.351562 -83.296875 5.3125 -81.578125 C 8.050781 -76.617188 8.085938 -73.398438 5.421875 -71.921875 L -3.984375 -66.828125 L 6.15625 -50.296875 L 25.0625 -16.375 C 25.644531 -15.320312 26 -14.617188 26.125 -14.265625 C 26.320312 -13.347656 25.453125 -12.351562 23.515625 -11.28125 C 17.890625 -8.164062 14.507812 -7.640625 13.375 -9.703125 Z M 13.375 -9.703125 "/></g></g></g><g fill="#000000" fill-opacity="1"><g transform="translate(87.990156, 129.672042)"><g><path d="M -31.53125 -63.21875 C -32.394531 -64.78125 -30.945312 -66.601562 -27.1875 -68.6875 C -23.4375 -70.769531 -20.75 -70.914062 -19.125 -69.125 L 16.984375 -30.5625 L 4.75 -71.546875 C 4.351562 -72.773438 4.410156 -73.785156 4.921875 -74.578125 C 5.429688 -75.378906 6.546875 -76.257812 8.265625 -77.21875 C 12.722656 -79.675781 15.914062 -79.878906 17.84375 -77.828125 L 46.6875 -47.015625 L 31.796875 -97.34375 C 31.390625 -98.707031 31.429688 -99.800781 31.921875 -100.625 C 32.421875 -101.445312 33.726562 -102.441406 35.84375 -103.609375 C 37.957031 -104.785156 39.40625 -105.410156 40.1875 -105.484375 C 40.976562 -105.554688 41.65625 -105.09375 42.21875 -104.09375 C 42.34375 -103.863281 42.453125 -103.597656 42.546875 -103.296875 L 61.5 -36.25 C 61.863281 -34.925781 61.894531 -33.90625 61.59375 -33.1875 C 61.289062 -32.476562 60.554688 -31.800781 59.390625 -31.15625 C 53.441406 -27.851562 49.640625 -27.054688 47.984375 -28.765625 L 22.71875 -53.46875 L 31.53125 -19.859375 C 31.925781 -18.484375 31.96875 -17.414062 31.65625 -16.65625 C 31.34375 -15.90625 30.628906 -15.222656 29.515625 -14.609375 C 23.566406 -11.304688 19.789062 -10.519531 18.1875 -12.25 L -31.1875 -62.765625 C -31.320312 -62.890625 -31.4375 -63.039062 -31.53125 -63.21875 Z M -31.53125 -63.21875 "/></g></g></g><g clip-path="url(#4d54aa9841)"><g fill="#000000" fill-opacity="1"><g transform="translate(167.092012, 85.848019)"><g><path d="M -14.0625 -32.671875 C -18.957031 -41.523438 -22.019531 -48.695312 -23.25 -54.1875 C -24.488281 -59.675781 -24.113281 -64.207031 -22.125 -67.78125 C -20.132812 -71.363281 -16.273438 -74.738281 -10.546875 -77.90625 C -4.816406 -81.082031 0.0820312 -82.5625 4.15625 -82.34375 C 8.238281 -82.132812 12.265625 -80.054688 16.234375 -76.109375 C 20.203125 -72.171875 24.648438 -65.75 29.578125 -56.84375 C 36.328125 -44.664062 39.4375 -35.375 38.90625 -28.96875 C 38.375 -22.5625 33.960938 -17.0625 25.671875 -12.46875 C 17.390625 -7.882812 10.382812 -7.0625 4.65625 -10 C -1.070312 -12.9375 -7.3125 -20.492188 -14.0625 -32.671875 Z M -8.75 -55.9375 C -7.925781 -53.675781 -6.945312 -51.457031 -5.8125 -49.28125 C -4.6875 -47.113281 -2.707031 -43.46875 0.125 -38.34375 C 2.96875 -33.226562 5.507812 -29.035156 7.75 -25.765625 C 10 -22.503906 11.703125 -20.488281 12.859375 -19.71875 C 14.015625 -18.945312 15.066406 -18.820312 16.015625 -19.34375 C 20.898438 -22.050781 23.820312 -24.320312 24.78125 -26.15625 C 25.113281 -26.851562 25.296875 -27.789062 25.328125 -28.96875 C 25.359375 -30.15625 25.222656 -31.285156 24.921875 -32.359375 C 24.628906 -33.429688 24.054688 -34.925781 23.203125 -36.84375 C 22.097656 -39.363281 19.828125 -43.722656 16.390625 -49.921875 C 12.953125 -56.117188 10.082031 -60.929688 7.78125 -64.359375 C 5.488281 -67.785156 3.691406 -69.988281 2.390625 -70.96875 C 1.085938 -71.957031 -0.0351562 -72.1875 -0.984375 -71.65625 C -3.210938 -70.425781 -4.953125 -69.332031 -6.203125 -68.375 C -7.453125 -67.425781 -8.394531 -66.285156 -9.03125 -64.953125 C -9.675781 -63.617188 -9.992188 -62.347656 -9.984375 -61.140625 C -9.984375 -59.941406 -9.570312 -58.207031 -8.75 -55.9375 Z M -8.75 -55.9375 "/></g></g></g></g></g></g></g><g mask="url(#59e63de588)"><g transform="matrix(1, 0, 0, 1, 0, 21)"><g clip-path="url(#4c2afa248b)"><g clip-path="url(#7846ae261e)"><g clip-path="url(#91909f65ec)"><g clip-path="url(#d29bec64df)"><g clip-path="url(#ef8ea1af5c)"><path fill="#000000" d="M 243.058594 280.59375 C 238.375 281.191406 236.371094 283.539062 235.628906 288.125 C 234.835938 293.042969 232.671875 297.722656 231.28125 302.558594 C 223.359375 330.160156 245.996094 350.179688 270.589844 346.820312 C 265.328125 350.898438 248.894531 348.890625 240.464844 343.089844 C 231.078125 336.628906 225.929688 327.730469 224.808594 315.988281 C 221.722656 320.3125 218.421875 324.5 215.59375 328.992188 C 210.808594 336.601562 206.886719 344.632812 204.734375 353.460938 C 203.6875 357.753906 204.527344 361.558594 206.128906 365.609375 C 207.894531 370.074219 209.167969 374.84375 209.867188 379.597656 C 211.519531 390.808594 216.121094 400.796875 221.480469 410.585938 C 228.8125 423.976562 235.96875 437.464844 243.199219 450.910156 C 243.347656 451.195312 243.492188 451.476562 243.6875 451.851562 C 247.535156 450.601562 251.257812 449.398438 255.242188 448.105469 C 254.257812 443.125 253.214844 438.054688 252.261719 432.96875 C 249.878906 420.292969 247.507812 407.617188 245.195312 394.929688 C 243.15625 383.746094 238.082031 374.1875 230.074219 366.15625 C 229.898438 365.980469 229.78125 365.746094 229.476562 365.308594 C 233.648438 364.898438 237.667969 364.570312 241.671875 364.101562 C 260.046875 361.945312 274.527344 352.824219 286.136719 338.832031 C 288.085938 336.488281 289.667969 335.816406 292.707031 336.621094 C 313.117188 342.03125 332.273438 339.199219 349.90625 327.300781 C 351.035156 326.539062 352.191406 325.8125 353.347656 325.089844 C 353.460938 325.019531 353.664062 325.09375 353.65625 325.09375 C 353.675781 329.9375 353.511719 334.777344 353.753906 339.59375 C 354.152344 347.425781 357.15625 354.53125 360.476562 361.488281 C 367.683594 376.578125 374.964844 391.628906 382.292969 406.851562 C 385.914062 405.675781 389.6875 404.453125 393.5625 403.199219 C 391.988281 391.488281 390.425781 379.753906 388.832031 368.023438 C 387.894531 361.085938 386.914062 354.15625 385.949219 347.222656 C 384.796875 338.90625 382.078125 331.125 377.859375 323.882812 C 375.246094 319.394531 373.53125 314.621094 372.738281 309.503906 C 372.242188 306.316406 370.5625 303.816406 368.210938 301.695312 C 359.085938 293.460938 348.246094 288.382812 336.710938 284.605469 C 334.222656 283.792969 331.679688 283.148438 328.808594 282.324219 C 342.660156 306.351562 328.324219 328.183594 310.445312 333.988281 C 311.238281 333.472656 312.007812 332.925781 312.820312 332.445312 C 330.046875 322.292969 335.175781 299.136719 323.445312 283.011719 C 320.792969 279.363281 317.015625 276.46875 313.507812 273.523438 C 309.203125 269.90625 304.679688 266.546875 300.152344 263.210938 C 299.53125 262.753906 298.257812 262.789062 297.433594 263.050781 C 285.550781 266.832031 273.695312 270.695312 261.832031 274.535156 C 255.65625 276.53125 249.476562 278.523438 243.058594 280.59375 Z M 242.519531 290.925781 C 261.964844 286.535156 280.964844 280.730469 299.308594 272.726562 C 297.605469 274.753906 295.871094 276.632812 293.875 278.164062 C 284.253906 285.566406 273.195312 289.589844 261.34375 291.582031 C 254.960938 292.65625 248.5625 292.890625 242.519531 290.925781 Z M 242.519531 290.925781 " fill-opacity="1" fill-rule="nonzero"/></g></g></g></g><g clip-path="url(#54377cc48e)"><g clip-path="url(#353898e78b)"><g clip-path="url(#97fcafcead)"><g clip-path="url(#4995e11c12)"><path fill="#000000" d="M 151.628906 515.53125 C 174.375 508.179688 197.128906 500.835938 219.871094 493.46875 C 312.550781 463.433594 405.230469 433.394531 497.910156 403.355469 C 500.832031 402.40625 503.757812 401.460938 507.109375 400.371094 C 506.636719 398.910156 506.152344 397.414062 505.667969 395.917969 C 504.140625 391.207031 502.628906 386.488281 501.074219 381.78125 C 499.710938 377.632812 496.792969 376.035156 492.554688 377.082031 C 491.644531 377.308594 490.757812 377.625 489.867188 377.914062 C 376.792969 414.554688 263.722656 451.191406 150.648438 487.828125 C 145.644531 489.453125 143.789062 491.617188 144.277344 495.804688 C 146.421875 501.597656 148.269531 507.125 150.179688 512.632812 C 150.53125 513.644531 151.140625 514.566406 151.628906 515.53125 Z M 151.628906 515.53125 " fill-opacity="1" fill-rule="nonzero"/></g></g></g></g><g clip-path="url(#34d683aa3c)"><g clip-path="url(#c15241b63e)"><g clip-path="url(#9ac2775246)"><g clip-path="url(#abbe92da7b)"><path fill="#000000" d="M 256.171875 176.910156 C 256.730469 180.304688 257.234375 183.46875 257.800781 186.988281 C 264.230469 175.070312 264.121094 162.925781 261.226562 150.609375 C 257.761719 135.84375 252.226562 121.757812 246.527344 107.75 C 244.285156 102.238281 241.917969 96.664062 238.757812 91.65625 C 227.566406 73.925781 201.34375 73.898438 189.792969 91.457031 C 185.054688 98.652344 184.394531 106.761719 186.167969 114.871094 C 191.480469 139.171875 198.484375 163.019531 206.769531 186.46875 C 209.90625 195.347656 214.464844 203.503906 222.925781 208.53125 C 233.214844 214.648438 243.796875 215.445312 254.527344 209.546875 C 255.03125 209.265625 255.464844 208.851562 256.472656 208.097656 C 253.085938 208.8125 250.265625 208.335938 248.757812 206.042969 C 247.390625 203.960938 246.59375 201.25 246.359375 198.746094 C 246.136719 196.359375 246.742188 193.8125 247.378906 191.441406 C 250.285156 180.640625 250.070312 169.839844 247.722656 159 C 247.117188 156.210938 246.539062 153.421875 246.085938 150.5625 C 250.796875 158.71875 253.601562 167.640625 256.171875 176.910156 Z M 256.171875 176.910156 " fill-opacity="1" fill-rule="nonzero"/></g></g></g></g><g clip-path="url(#5d971b9970)"><g clip-path="url(#07bfe2f592)"><g clip-path="url(#3d30b09eb4)"><g clip-path="url(#3da015d87e)"><path fill="#000000" d="M 375.808594 98.5 C 383.773438 123.125 391.660156 147.503906 399.546875 171.882812 C 401.425781 177.679688 404.992188 179.546875 410.777344 177.703125 C 417.769531 175.472656 424.757812 173.21875 431.734375 170.945312 C 437.472656 169.078125 439.257812 165.597656 437.335938 159.640625 C 428.484375 132.25 419.578125 104.882812 410.699219 77.5 C 407.90625 68.886719 405.179688 60.257812 402.367188 51.648438 C 400.757812 46.71875 397.457031 44.828125 392.460938 46.320312 C 384.695312 48.648438 376.96875 51.136719 369.304688 53.773438 C 364.824219 55.316406 363.097656 59.292969 364.578125 63.890625 C 368.273438 75.355469 372.007812 86.800781 375.808594 98.5 Z M 386.644531 76.789062 C 387.414062 76.148438 388.261719 74.917969 388.925781 75.011719 C 389.757812 75.128906 390.820312 76.203125 391.113281 77.089844 C 395.898438 91.496094 400.589844 105.933594 405.265625 120.375 C 405.757812 121.894531 405.921875 123.71875 404.015625 124.214844 C 402.214844 124.683594 401.398438 123.207031 400.898438 121.578125 C 399.445312 116.847656 397.902344 112.148438 396.390625 107.4375 C 393.148438 97.375 389.902344 87.3125 386.644531 76.789062 Z M 386.644531 76.789062 " fill-opacity="1" fill-rule="nonzero"/></g></g></g></g><g clip-path="url(#ebbe7d0945)"><g clip-path="url(#0507d60287)"><g clip-path="url(#2531ef4903)"><g clip-path="url(#e531e0ffb4)"><path fill="#000000" d="M 49.503906 229.078125 C 50.710938 232.988281 51.917969 236.894531 53.464844 241.058594 C 54.054688 242.457031 54.304688 243.597656 54.554688 244.738281 C 54.871094 245.878906 55.191406 247.019531 55.863281 248.40625 C 56.464844 249.082031 56.796875 249.488281 56.949219 249.953125 C 60.285156 260.199219 63.609375 270.457031 66.902344 280.71875 C 67.09375 281.316406 66.992188 282.007812 67.027344 282.65625 C 69.003906 286.054688 71.957031 287.394531 75.910156 286.175781 C 83.816406 283.746094 91.695312 281.199219 99.515625 278.496094 C 103.800781 277.011719 105.414062 273.164062 103.921875 268.464844 C 100.953125 259.105469 97.878906 249.785156 94.851562 240.445312 C 86.246094 213.890625 77.65625 187.332031 69.035156 160.78125 C 67.050781 154.671875 63.574219 152.871094 57.488281 154.792969 C 50.40625 157.023438 43.34375 159.300781 36.289062 161.617188 C 31.613281 163.152344 29.742188 166.308594 30.757812 171.402344 C 31.351562 171.960938 31.765625 172.304688 31.90625 172.738281 C 35.339844 183.238281 38.75 193.746094 42.121094 204.265625 C 42.300781 204.816406 42.074219 205.496094 42.035156 206.117188 C 44.375 213.457031 46.710938 220.796875 49.304688 228.351562 C 49.542969 228.734375 49.523438 228.90625 49.503906 229.078125 Z M 53.679688 185.121094 C 53.574219 184.972656 53.476562 184.820312 53.375 184.671875 C 53.574219 184.855469 53.773438 185.039062 54.113281 184.828125 C 54.910156 184.089844 55.761719 182.71875 56.492188 182.777344 C 57.339844 182.847656 58.496094 184.039062 58.8125 184.984375 C 63.585938 199.285156 68.25 213.625 72.914062 227.964844 C 73.417969 229.515625 73.480469 231.320312 71.722656 231.894531 C 69.9375 232.476562 68.738281 231.277344 68.207031 229.445312 C 67.59375 227.324219 66.851562 225.242188 65.78125 223.023438 C 65.589844 222.066406 65.390625 221.109375 65.183594 219.671875 C 61.449219 208.199219 57.710938 196.726562 53.679688 185.121094 Z M 53.679688 185.121094 " fill-opacity="1" fill-rule="nonzero"/></g></g></g></g><g clip-path="url(#7a2d32d09c)"><g clip-path="url(#cb4ac231ee)"><g clip-path="url(#0dc008e97d)"><g clip-path="url(#ce4f0a7dc9)"><path fill="#000000" d="M 352.082031 171.441406 C 351.261719 163.84375 350.398438 156.460938 349.734375 149.066406 C 349.53125 146.804688 350.015625 144.492188 349.929688 142.214844 C 349.84375 139.796875 349.816406 137.277344 349.105469 135.007812 C 347.933594 131.269531 346.34375 127.648438 344.703125 124.082031 C 344.058594 122.695312 342.902344 121.484375 341.785156 120.394531 C 339.925781 118.589844 338.140625 118.875 335.601562 119.800781 C 332.722656 120.855469 329.238281 120.242188 326.546875 122.398438 C 326.5 122.433594 326.382812 122.363281 326.296875 122.367188 C 324.582031 122.40625 322.148438 121.746094 321.285156 122.625 C 318.878906 125.082031 317.105469 128.164062 315.15625 131.046875 C 314.949219 131.351562 315.136719 132.03125 315.3125 132.46875 C 316.949219 136.503906 318.546875 140.558594 320.347656 144.523438 C 320.722656 145.347656 321.800781 146.152344 322.707031 146.394531 C 326.816406 147.496094 330.980469 148.394531 335.8125 149.527344 C 334.324219 165.136719 332.835938 180.714844 331.324219 196.542969 C 330.800781 196.144531 330.351562 195.855469 329.964844 195.503906 C 325.054688 191.011719 320.054688 186.609375 315.285156 181.976562 C 312.683594 179.453125 310.054688 176.792969 308.152344 173.75 C 301.628906 163.289062 292.152344 159.089844 280.199219 159.8125 C 277.167969 159.996094 274.167969 160.605469 270.894531 161.054688 C 273.574219 171.660156 275.203125 182.199219 281.355469 191.1875 C 283.601562 194.46875 286.519531 197.019531 290.1875 198.984375 C 290.183594 197.464844 290.183594 196.128906 290.183594 194.902344 C 293.757812 197.996094 297.101562 201.378906 300.914062 204.101562 C 311.164062 211.414062 322.234375 217.324219 333.8125 222.25 C 335.683594 223.046875 337.683594 223.636719 339.683594 224.007812 C 345.207031 225.035156 349.238281 222.929688 351.4375 217.746094 C 354.261719 211.085938 354.941406 204.035156 354.40625 196.898438 C 353.773438 188.472656 352.890625 180.070312 352.082031 171.441406 Z M 352.082031 171.441406 " fill-opacity="1" fill-rule="nonzero"/></g></g></g></g><g clip-path="url(#8d2db26aea)"><g clip-path="url(#fecfdfcb63)"><g clip-path="url(#a1debd7b71)"><g clip-path="url(#6944f1799c)"><path fill="#000000" d="M 122.054688 206.929688 C 122.398438 210.484375 124.347656 212.773438 126.398438 215.296875 C 129.644531 219.292969 132.316406 223.785156 134.960938 228.230469 C 141.925781 239.945312 148.601562 251.835938 155.6875 263.476562 C 159.027344 268.964844 163.371094 273.734375 169.074219 276.964844 C 174.078125 279.800781 178.96875 279.09375 182.617188 274.625 C 185.132812 271.542969 187.4375 268.152344 189.128906 264.566406 C 193.824219 254.628906 198.363281 244.605469 202.511719 234.429688 C 204.058594 230.644531 204.355469 226.347656 205.210938 222.316406 C 205.6875 223.269531 206.285156 224.46875 207.011719 225.929688 C 210.289062 220.476562 210.859375 214.738281 210.566406 208.832031 C 210.542969 208.382812 210.167969 207.894531 209.839844 207.53125 C 204.34375 201.429688 201.175781 194.097656 198.628906 186.4375 C 198.472656 185.964844 198.253906 185.511719 198.0625 185.046875 C 183.554688 191.859375 176.414062 202.742188 178.320312 217.152344 C 178.507812 218.578125 178.648438 220.09375 178.367188 221.476562 C 176.597656 230.226562 174.707031 238.949219 172.835938 247.761719 C 162.511719 236.128906 152.152344 224.453125 141.679688 212.652344 C 144.90625 208.851562 147.773438 205.605469 150.457031 202.210938 C 151.085938 201.414062 151.5 200.03125 151.304688 199.0625 C 150.453125 194.878906 149.402344 190.738281 148.269531 186.625 C 148.0625 185.875 147.234375 185.085938 146.496094 184.730469 C 144.886719 183.964844 143.113281 183.546875 141.46875 182.84375 C 138.519531 181.574219 135.871094 181.4375 133.828125 184.425781 C 133.6875 184.632812 133.445312 184.96875 133.296875 184.945312 C 129.464844 184.316406 127.078125 187.789062 123.695312 188.328125 C 120.46875 188.84375 118.539062 192.1875 119.445312 196.253906 C 120.226562 199.753906 121.144531 203.21875 122.054688 206.929688 Z M 122.054688 206.929688 " fill-opacity="1" fill-rule="nonzero"/></g></g></g></g><g clip-path="url(#b791024eb7)"><g clip-path="url(#3a8e703b09)"><g clip-path="url(#55e0a4a5e7)"><g clip-path="url(#2678724f42)"><path fill="#000000" d="M 283.378906 260.421875 C 287.582031 259.058594 291.546875 257.777344 295.691406 256.433594 C 294.726562 254.152344 293.851562 252.132812 293.007812 250.101562 C 289.519531 241.6875 288.875 232.9375 289.816406 223.960938 C 290.40625 218.285156 290.777344 212.585938 291.261719 206.738281 C 279.429688 202.402344 273 193.46875 269.742188 181.742188 C 268.394531 184.851562 267.078125 187.828125 265.835938 190.835938 C 265.671875 191.234375 265.765625 191.816406 265.910156 192.257812 C 269.371094 202.800781 265.617188 212.191406 255.726562 217.15625 C 242.710938 223.691406 230.089844 222.949219 217.992188 214.707031 C 217.789062 214.570312 217.644531 214.34375 217.152344 213.808594 C 216.441406 220.898438 214.625 227.015625 210.761719 232.582031 C 215.3125 237.808594 219.796875 243.027344 224.359375 248.179688 C 230.769531 255.425781 234.378906 263.9375 236.015625 273.382812 C 236.128906 274.042969 236.347656 274.691406 236.578125 275.589844 C 252.164062 270.539062 267.648438 265.519531 283.378906 260.421875 Z M 283.378906 260.421875 " fill-opacity="1" fill-rule="nonzero"/></g></g></g></g><g clip-path="url(#f40894f549)"><g clip-path="url(#7ecaf7c2bc)"><g clip-path="url(#970616ab3f)"><g clip-path="url(#94c0e060d4)"><path fill="#000000" d="M 465.320312 421.210938 C 435.585938 430.84375 406.09375 440.390625 376.601562 449.945312 C 318.292969 468.847656 259.984375 487.753906 201.679688 506.65625 C 183.480469 512.558594 165.285156 518.460938 147.09375 524.367188 C 145.644531 524.835938 144.195312 525.300781 142.769531 525.824219 C 140.570312 526.632812 139.386719 528.726562 139.859375 530.890625 C 140.351562 533.140625 142.136719 534.449219 144.625 534.105469 C 146.214844 533.886719 147.78125 533.390625 149.320312 532.894531 C 232.351562 506.003906 315.382812 479.097656 398.410156 452.195312 C 438.953125 439.0625 479.492188 425.929688 520.03125 412.785156 C 521.078125 412.445312 522.140625 412.082031 523.105469 411.558594 C 525.15625 410.453125 525.664062 408.597656 524.972656 406.527344 C 524.285156 404.453125 522.710938 403.328125 520.449219 403.566406 C 519.445312 403.671875 518.449219 403.996094 517.476562 404.308594 C 500.171875 409.910156 482.867188 415.523438 465.320312 421.210938 Z M 465.320312 421.210938 " fill-opacity="1" fill-rule="nonzero"/></g></g></g></g><g clip-path="url(#cf35810c25)"><g clip-path="url(#eaaa454550)"><g clip-path="url(#b83334a7e5)"><g clip-path="url(#ab02244591)"><path fill="#000000" d="M 436.472656 77.222656 C 434.730469 71.859375 433.101562 66.730469 431.390625 61.628906 C 430.226562 58.148438 427.917969 56.980469 424.429688 58.019531 C 422.464844 58.605469 420.523438 59.257812 418.574219 59.890625 C 413.710938 61.464844 412.59375 63.675781 414.183594 68.628906 C 416.351562 75.378906 418.535156 82.121094 420.722656 88.863281 C 426.207031 105.765625 431.695312 122.660156 437.183594 139.558594 C 438.90625 144.863281 440.933594 145.90625 446.214844 144.234375 C 447.921875 143.691406 449.636719 143.167969 451.335938 142.59375 C 455.378906 141.222656 456.492188 139.050781 455.167969 134.902344 C 452.800781 127.5 450.375 120.117188 447.972656 112.722656 C 447.71875 111.933594 447.460938 111.144531 447.121094 110.089844 C 450.691406 108.929688 454.089844 107.863281 457.464844 106.726562 C 461.171875 105.472656 462.25 103.378906 461.0625 99.621094 C 459.570312 94.894531 458.019531 90.191406 456.425781 85.5 C 455.421875 82.554688 453.425781 81.503906 450.433594 82.398438 C 446.839844 83.472656 443.292969 84.691406 439.308594 85.980469 C 438.367188 83.074219 437.460938 80.269531 436.472656 77.222656 Z M 436.472656 77.222656 " fill-opacity="1" fill-rule="nonzero"/></g></g></g></g><g clip-path="url(#f9018dc95b)"><g clip-path="url(#b95621e2f5)"><g clip-path="url(#768cdfb4f5)"><g clip-path="url(#76e70e75e7)"><path fill="#000000" d="M 20.238281 218.640625 C 20.394531 219.550781 20.554688 220.460938 20.753906 221.617188 C 17.445312 222.6875 14.078125 223.757812 10.726562 224.871094 C 7.023438 226.105469 6.089844 227.851562 7.359375 231.835938 C 8.378906 233.804688 9.199219 235.550781 9.75 237.378906 C 10.269531 239.097656 10.503906 240.90625 10.867188 242.671875 C 11.09375 243.519531 11.324219 244.363281 11.792969 245.394531 C 12.089844 245.621094 12.203125 245.679688 12.195312 245.695312 C 12.152344 245.816406 12.082031 245.933594 12.019531 246.050781 C 13.074219 248.773438 14.816406 249.933594 17.492188 249.195312 C 21.171875 248.179688 24.773438 246.878906 28.546875 245.65625 C 28.960938 246.632812 29.253906 247.308594 29.878906 248.207031 C 30.453125 248.757812 30.789062 249.054688 30.910156 249.425781 C 32.933594 255.589844 34.945312 261.761719 36.898438 267.949219 C 37.078125 268.523438 36.867188 269.21875 36.839844 269.859375 C 37.914062 274.335938 40.226562 275.742188 44.425781 274.433594 C 46.625 273.75 48.820312 273.050781 50.988281 272.273438 C 54.398438 271.046875 55.550781 268.773438 54.546875 265.25 C 53.9375 263.117188 53.21875 261.011719 52.53125 258.902344 C 45.269531 236.582031 38.003906 214.257812 30.742188 191.9375 C 29.507812 188.136719 27.335938 186.902344 23.535156 187.96875 C 21.234375 188.613281 18.957031 189.339844 16.703125 190.128906 C 13.96875 191.085938 12.882812 192.738281 13.121094 195.988281 C 15.160156 201.457031 16.929688 206.664062 18.660156 211.882812 C 18.738281 212.125 18.453125 212.488281 18.335938 212.792969 C 18.714844 214.101562 19.09375 215.40625 19.785156 216.9375 C 20.148438 217.652344 20.191406 218.144531 20.238281 218.640625 Z M 20.238281 218.640625 " fill-opacity="1" fill-rule="nonzero"/></g></g></g></g><g clip-path="url(#7630a86d8b)"><g clip-path="url(#666276dbeb)"><g clip-path="url(#d62bce81ab)"><g clip-path="url(#bd30af7907)"><path fill="#000000" d="M 295.046875 151.617188 C 301.109375 149.648438 306.9375 147.761719 312.8125 145.855469 C 311.691406 142.394531 310.621094 139.097656 309.5 135.644531 C 295.714844 140.109375 282.132812 144.511719 268.332031 148.984375 C 268.742188 150.480469 269.136719 151.917969 269.597656 153.605469 C 271.300781 153.25 272.917969 152.683594 274.558594 152.613281 C 279.226562 152.417969 283.90625 152.472656 288.582031 152.316406 C 290.664062 152.246094 292.738281 151.910156 295.046875 151.617188 Z M 295.046875 151.617188 " fill-opacity="1" fill-rule="nonzero"/></g></g></g></g><g clip-path="url(#521936648f)"><g clip-path="url(#d56b2134c5)"><g clip-path="url(#5dcfdf9d7c)"><g clip-path="url(#267c93a19c)"><path fill="#000000" d="M 156.191406 189.785156 C 156.859375 191.878906 157.460938 193.738281 158.132812 195.8125 C 158.632812 195.699219 159.277344 195.609375 159.890625 195.414062 C 163.136719 194.378906 166.355469 193.25 169.621094 192.277344 C 175.257812 190.601562 180.582031 188.664062 184.980469 184.285156 C 187.851562 181.425781 191.867188 179.707031 195.601562 177.332031 C 195.300781 176.144531 194.917969 174.617188 194.488281 172.921875 C 181.359375 177.175781 168.347656 181.394531 155.152344 185.671875 C 155.480469 186.96875 155.804688 188.257812 156.191406 189.785156 Z M 156.191406 189.785156 " fill-opacity="1" fill-rule="nonzero"/></g></g></g></g><g clip-path="url(#a04ee0473d)"><g clip-path="url(#7b563bf3c6)"><g clip-path="url(#9f40b1299b)"><g clip-path="url(#7fb6659494)"><path fill="#000000" d="M 373.429688 114.804688 C 366.003906 117.21875 358.8125 119.550781 351.429688 121.941406 C 352.8125 125.398438 354.09375 128.605469 355.421875 131.925781 C 362.800781 129.53125 370.066406 127.179688 377.679688 124.710938 C 376.65625 121.546875 375.652344 118.402344 374.585938 115.273438 C 374.5 115.015625 373.980469 114.902344 373.429688 114.804688 Z M 373.429688 114.804688 " fill-opacity="1" fill-rule="nonzero"/></g></g></g></g><g clip-path="url(#135a06ecb7)"><g clip-path="url(#635c5d223c)"><g clip-path="url(#7397585ac3)"><g clip-path="url(#c3a22b79ba)"><path fill="#000000" d="M 109.242188 211.835938 C 111.503906 211.105469 113.519531 210.453125 115.660156 209.757812 C 114.804688 206.183594 113.992188 202.804688 113.144531 199.277344 C 105.589844 201.722656 98.09375 204.152344 90.457031 206.628906 C 91.546875 209.996094 92.613281 213.28125 93.769531 216.851562 C 98.839844 215.207031 103.921875 213.5625 109.242188 211.835938 Z M 109.242188 211.835938 " fill-opacity="1" fill-rule="nonzero"/></g></g></g></g><g clip-path="url(#386d60b6c3)"><g clip-path="url(#f8c7e24df4)"><g clip-path="url(#318c600a97)"><g clip-path="url(#44a121df88)"><path fill="#000000" d="M 41.902344 205.917969 C 42.074219 205.496094 42.300781 204.816406 42.121094 204.265625 C 38.75 193.746094 35.339844 183.238281 31.90625 172.738281 C 31.765625 172.304688 31.351562 171.960938 30.867188 171.566406 C 34.367188 182.945312 38.070312 194.335938 41.902344 205.917969 Z M 41.902344 205.917969 " fill-opacity="1" fill-rule="nonzero"/></g></g></g></g><g clip-path="url(#8a03a13f31)"><g clip-path="url(#08863cdaea)"><g clip-path="url(#d69f6dd04a)"><g clip-path="url(#2063482bc0)"><path fill="#000000" d="M 66.886719 282.496094 C 66.992188 282.007812 67.09375 281.316406 66.902344 280.71875 C 63.609375 270.457031 60.285156 260.199219 56.949219 249.953125 C 56.796875 249.488281 56.464844 249.082031 56.003906 248.582031 C 59.441406 259.785156 63.09375 271.058594 66.886719 282.496094 Z M 66.886719 282.496094 " fill-opacity="1" fill-rule="nonzero"/></g></g></g></g><g clip-path="url(#36237c8445)"><g clip-path="url(#02a1933711)"><g clip-path="url(#f1c3b49ade)"><g clip-path="url(#ef022e0d65)"><path fill="#000000" d="M 36.703125 269.660156 C 36.867188 269.21875 37.078125 268.523438 36.898438 267.949219 C 34.945312 261.761719 32.933594 255.589844 30.910156 249.425781 C 30.789062 249.054688 30.453125 248.757812 30.027344 248.398438 C 32.078125 255.402344 34.324219 262.429688 36.703125 269.660156 Z M 36.703125 269.660156 " fill-opacity="1" fill-rule="nonzero"/></g></g></g></g><g clip-path="url(#bb3973b2e4)"><g clip-path="url(#3f6a99e7a3)"><g clip-path="url(#2a558752d3)"><g clip-path="url(#9dce16d17b)"><path fill="#000000" d="M 18.207031 212.601562 C 18.453125 212.488281 18.738281 212.125 18.660156 211.882812 C 16.929688 206.664062 15.160156 201.457031 13.191406 196.167969 C 14.683594 201.527344 16.378906 206.96875 18.207031 212.601562 Z M 18.207031 212.601562 " fill-opacity="1" fill-rule="nonzero"/></g></g></g></g><g clip-path="url(#5e0254e217)"><g clip-path="url(#d1b455a7ce)"><g clip-path="url(#2c36401ec0)"><g clip-path="url(#3bdd5f4c10)"><path fill="#000000" d="M 54.4375 244.597656 C 54.304688 243.597656 54.054688 242.457031 53.601562 241.253906 C 53.707031 242.28125 54.015625 243.371094 54.4375 244.597656 Z M 54.4375 244.597656 " fill-opacity="1" fill-rule="nonzero"/></g></g></g></g><g clip-path="url(#3a7817316f)"><g clip-path="url(#7b7d713def)"><g clip-path="url(#d6687ea820)"><g clip-path="url(#1438047b3f)"><path fill="#000000" d="M 20.121094 218.464844 C 20.191406 218.144531 20.148438 217.652344 19.925781 217.117188 C 19.835938 217.480469 19.921875 217.886719 20.121094 218.464844 Z M 20.121094 218.464844 " fill-opacity="1" fill-rule="nonzero"/></g></g></g></g><g clip-path="url(#0eebaf7699)"><g clip-path="url(#f66a188ce2)"><g clip-path="url(#690b85ff54)"><g clip-path="url(#251124d1d2)"><path fill="#000000" d="M 49.414062 228.953125 C 49.523438 228.90625 49.542969 228.734375 49.445312 228.546875 C 49.328125 228.628906 49.324219 228.730469 49.414062 228.953125 Z M 49.414062 228.953125 " fill-opacity="1" fill-rule="nonzero"/></g></g></g></g><g clip-path="url(#5434451b6f)"><g clip-path="url(#4704937805)"><g clip-path="url(#253b426a21)"><g clip-path="url(#91c844714d)"><path fill="#000000" d="M 65.972656 223.085938 C 65.925781 222.273438 65.683594 221.402344 65.320312 220.339844 C 65.390625 221.109375 65.589844 222.066406 65.972656 223.085938 Z M 65.972656 223.085938 " fill-opacity="1" fill-rule="nonzero"/></g></g></g></g><g clip-path="url(#25b0ee8a3d)"><g clip-path="url(#de25e87f3e)"><g clip-path="url(#ee530f54c5)"><g clip-path="url(#2fec136980)"><path fill="#000000" d="M 53.828125 185.1875 C 53.976562 185.253906 53.957031 185.234375 53.964844 185.226562 C 53.773438 185.039062 53.574219 184.855469 53.375 184.671875 C 53.476562 184.820312 53.574219 184.972656 53.828125 185.1875 Z M 53.828125 185.1875 " fill-opacity="1" fill-rule="nonzero"/></g></g></g></g><g clip-path="url(#0b28387089)"><g clip-path="url(#4d724deec6)"><g clip-path="url(#1c2de9d566)"><g clip-path="url(#733c347b98)"><path fill="#000000" d="M 29.90625 247.003906 C 29.898438 247.039062 29.910156 246.972656 29.90625 247.003906 Z M 29.90625 247.003906 " fill-opacity="1" fill-rule="nonzero"/></g></g></g></g></g></g></g></svg>