<svg xmlns="http://www.w3.org/2000/svg" xmlns:xlink="http://www.w3.org/1999/xlink" width="600" zoomAndPan="magnify" viewBox="0 0 450 449.999984" height="600" preserveAspectRatio="xMidYMid meet" version="1.0"><defs><filter x="0%" y="0%" width="100%" height="100%" id="0ac94d3c3b"><feColorMatrix values="0 0 0 0 1 0 0 0 0 1 0 0 0 0 1 0 0 0 1 0" color-interpolation-filters="sRGB"/></filter><g/><mask id="8ca872c468"><g filter="url(#0ac94d3c3b)"><rect x="-45" width="540" fill="#000000" y="-44.999998" height="539.99998" fill-opacity="0.22"/></g></mask><clipPath id="22898e7441"><path d="M 0.175781 1 L 412 1 L 412 374 L 0.175781 374 Z M 0.175781 1 " clip-rule="nonzero"/></clipPath><clipPath id="a56a226e61"><rect x="0" width="414" y="0" height="374"/></clipPath><mask id="2e5a1fc842"><g filter="url(#0ac94d3c3b)"><rect x="-45" width="540" fill="#000000" y="-44.999998" height="539.99998" fill-opacity="0.22"/></g></mask><clipPath id="8cb9b9ead9"><path d="M 134 0 L 215 0 L 215 86 L 134 86 Z M 134 0 " clip-rule="nonzero"/></clipPath><clipPath id="c611df38db"><rect x="0" width="234" y="0" height="181"/></clipPath></defs><g mask="url(#8ca872c468)"><g transform="matrix(1, 0, 0, 1, 36, 76)"><g clip-path="url(#a56a226e61)"><g clip-path="url(#22898e7441)"><path fill="#000000" d="M 280.734375 1.027344 C 271.96875 1.148438 259.5 2.699219 242.359375 5.773438 C 233.011719 7.445312 230.707031 8.261719 228.238281 10.761719 C 225.414062 13.617188 225.273438 14.269531 224.964844 25.914062 C 224.644531 37.867188 224.6875 38.113281 227.304688 39.820312 C 228.773438 40.777344 233.679688 44.808594 238.207031 48.78125 C 248.789062 58.0625 250.632812 58.167969 261.253906 50.09375 C 265.871094 46.582031 266.113281 45.335938 262.179688 45.269531 C 260.199219 45.234375 253.582031 42.226562 255.28125 42.132812 C 255.65625 42.113281 259.707031 43.355469 264.285156 44.890625 C 278.457031 48.40625 283.96875 33.59375 295.203125 28.28125 C 318.277344 33.332031 309.636719 64.671875 328.019531 91.394531 C 338.492188 110.941406 347.402344 113.457031 371.144531 103.5625 C 372.566406 102.96875 372.964844 103.082031 372.441406 103.925781 C 371.265625 105.828125 355.078125 110.5625 349.746094 110.5625 C 343.058594 110.5625 338.574219 108.398438 334.09375 103.007812 L 330.25 98.378906 C 310.023438 95.308594 296.679688 104.332031 290.808594 114.089844 C 289.777344 115.328125 267.613281 130.566406 265.566406 137.929688 C 264.429688 119.351562 286.097656 114.285156 284.714844 114.09375 C 265.941406 117.515625 219.363281 115.605469 207.492188 133.226562 C 195.761719 114.445312 208.730469 95.371094 210.847656 88.019531 C 213.511719 79.070312 211.886719 69.417969 207.105469 61.640625 C 206.488281 59.023438 204.480469 56.753906 202.519531 54.882812 C 199.269531 51.777344 195.0625 49.722656 192.125 46.335938 C 189.003906 42.742188 187.109375 37.6875 182.152344 36.011719 C 173.703125 33.15625 164.671875 35.816406 156.710938 38.859375 C 152.039062 40.644531 147.199219 41.894531 142.152344 42.230469 C 137.878906 42.511719 129.292969 37.796875 129.34375 42.058594 C 129.375 44.648438 138.3125 40.320312 135.828125 41.816406 C 133.5 43.226562 131.089844 43.964844 128.109375 44.382812 C 122.996094 45.105469 117.882812 45.714844 112.6875 45.863281 C 111.554688 45.898438 109.675781 45.214844 112.007812 46.03125 C 115.699219 47.324219 118.667969 49.519531 122.546875 50.945312 C 126.382812 52.351562 120.113281 53.082031 118.714844 53.1875 C 110.648438 53.777344 101.9375 55.792969 94.457031 52.65625 C 92.945312 52.023438 91.875 52.125 93.171875 53.839844 C 95.945312 57.511719 100.820312 58.472656 104.988281 59.800781 C 106.605469 60.316406 110.96875 61.0625 110.695312 61.089844 C 105.355469 61.566406 101.402344 66.917969 95.847656 66.128906 C 94.316406 65.914062 93.074219 66.015625 95.148438 66.910156 C 103.265625 70.417969 110.574219 76.265625 119.238281 78.300781 C 117.753906 81.882812 118.035156 85.003906 119.933594 89.972656 C 121.644531 94.457031 121.625 94.765625 119.21875 99.902344 C 117.851562 102.816406 109.976562 107.628906 108.605469 108.527344 C 105.253906 110.722656 113.777344 111 117.617188 115.019531 C 120.460938 117.992188 119.128906 122.207031 118.082031 124.847656 C 124.296875 124.128906 122.054688 125.214844 127.378906 126.613281 C 122.34375 127.171875 119.335938 128.699219 120.300781 130.167969 C 123.476562 135.019531 127.847656 140 134.890625 147.519531 C 147.132812 143.25 151.285156 138.292969 154.164062 139.78125 C 161.75 143.703125 162.550781 148.105469 157.300781 157.0625 C 154.171875 162.394531 152.414062 163.261719 140.101562 165.53125 C 121.714844 168.921875 106.09375 178.992188 100.464844 191.074219 C 94.003906 200.28125 100.984375 218.574219 100.984375 218.574219 C 100.984375 218.574219 91.367188 209.246094 94.835938 196.015625 C 76.789062 202.398438 65.449219 189.714844 47.886719 209.078125 C 44.085938 214.8125 43.4375 213.554688 47.03125 207.425781 C 49.652344 202.957031 49.855469 201.855469 49.199219 195.730469 C 48.800781 192.011719 47.066406 184.925781 45.339844 179.984375 C 41.605469 169.289062 39.433594 154.773438 40.503906 147.648438 C 41.121094 143.539062 41.558594 142.753906 42.699219 143.699219 C 47.90625 148.019531 56.265625 146.894531 61.171875 141.210938 C 62.796875 139.328125 65.445312 137.117188 67.058594 136.300781 C 72.238281 133.675781 74.292969 127.492188 74.292969 114.519531 C 74.292969 103.558594 80.066406 96.996094 75.996094 97.933594 C 70.46875 99.203125 43.632812 81.753906 40.128906 84.9375 C 30.472656 88.261719 24.238281 116.339844 15.972656 124.042969 C 16.011719 143.523438 13.007812 164.355469 8.078125 180.09375 C 0.855469 202.746094 0.101562 206.433594 0.109375 219.140625 C 0.121094 232.207031 2.765625 244.257812 7.496094 252.742188 C 8.941406 255.335938 9.863281 258.285156 9.539062 259.300781 C 9.109375 260.65625 10.101562 261.707031 13.300781 263.289062 C 17.597656 265.414062 17.75 265.417969 27.511719 263.460938 C 54.089844 255.203125 64.203125 286.421875 107.964844 258.941406 C 114.832031 266.03125 98.566406 294.75 111.453125 302.03125 C 111.453125 302.03125 137.558594 299.609375 143.828125 296.789062 C 140.445312 304.101562 111.5 310.085938 111.5 310.085938 C 100.472656 318.339844 120.765625 349.785156 104.433594 375.507812 C 104.339844 375.652344 104.253906 375.785156 104.253906 375.8125 C 104.253906 377.433594 128.515625 363.210938 144.195312 364.871094 C 153.316406 365.835938 182.472656 372.601562 191.527344 381.28125 C 206.6875 395.816406 237.667969 382.984375 245.339844 379.308594 C 249.855469 361.042969 241.742188 326.261719 229.605469 312.472656 C 226.59375 309.136719 226.089844 307.894531 226.636719 305.167969 C 227.109375 302.8125 226.917969 302 225.964844 302.304688 C 212.957031 315.816406 200.453125 322.203125 197.355469 346.402344 C 197.34375 313.8125 218.085938 309.050781 224.566406 300.050781 C 234.835938 285.789062 252.984375 269.015625 267.277344 258.371094 C 270.410156 256.039062 228.566406 253.4375 228.390625 231.785156 C 232.699219 252.667969 280.308594 249.417969 282.476562 247.605469 C 290.46875 240.929688 298.480469 231.234375 305.359375 219.796875 C 310.488281 211.257812 316.832031 197.558594 316.023438 196.753906 C 312.074219 200.03125 302.761719 204.332031 300.648438 199.292969 C 304.617188 202.601562 313.65625 193.515625 318.519531 191.945312 C 352.382812 183.070312 369.65625 164.765625 391.597656 130.792969 C 397.070312 122.316406 409.753906 97.339844 410.746094 93.074219 C 413.984375 79.195312 388.851562 49.28125 355.71875 27.582031 C 330.304688 10.9375 314.296875 4.71875 288.304688 1.382812 C 286.171875 1.109375 283.660156 0.988281 280.734375 1.027344 Z M 280.734375 1.027344 " fill-opacity="1" fill-rule="nonzero"/></g></g></g></g><g mask="url(#2e5a1fc842)"><g transform="matrix(1, 0, 0, 1, 18, 0)"><g clip-path="url(#c611df38db)"><g fill="#000000" fill-opacity="1"><g transform="translate(48.772977, 151.399149)"><g><path d="M 13.375 -9.703125 L -14.875 -60.6875 L -25.296875 -54.90625 C -26.671875 -54.21875 -27.726562 -54.101562 -28.46875 -54.5625 C -29.40625 -55.0625 -30.425781 -56.3125 -31.53125 -58.3125 C -33.289062 -61.488281 -33.226562 -63.597656 -31.34375 -64.640625 L -0.96875 -81.46875 C 2.257812 -83.257812 4.351562 -83.296875 5.3125 -81.578125 C 8.050781 -76.617188 8.085938 -73.398438 5.421875 -71.921875 L -3.984375 -66.828125 L 6.15625 -50.296875 L 25.0625 -16.375 C 25.644531 -15.320312 26 -14.617188 26.125 -14.265625 C 26.320312 -13.347656 25.453125 -12.351562 23.515625 -11.28125 C 17.890625 -8.164062 14.507812 -7.640625 13.375 -9.703125 Z M 13.375 -9.703125 "/></g></g></g><g fill="#000000" fill-opacity="1"><g transform="translate(87.990156, 129.672042)"><g><path d="M -31.53125 -63.21875 C -32.394531 -64.78125 -30.945312 -66.601562 -27.1875 -68.6875 C -23.4375 -70.769531 -20.75 -70.914062 -19.125 -69.125 L 16.984375 -30.5625 L 4.75 -71.546875 C 4.351562 -72.773438 4.410156 -73.785156 4.921875 -74.578125 C 5.429688 -75.378906 6.546875 -76.257812 8.265625 -77.21875 C 12.722656 -79.675781 15.914062 -79.878906 17.84375 -77.828125 L 46.6875 -47.015625 L 31.796875 -97.34375 C 31.390625 -98.707031 31.429688 -99.800781 31.921875 -100.625 C 32.421875 -101.445312 33.726562 -102.441406 35.84375 -103.609375 C 37.957031 -104.785156 39.40625 -105.410156 40.1875 -105.484375 C 40.976562 -105.554688 41.65625 -105.09375 42.21875 -104.09375 C 42.34375 -103.863281 42.453125 -103.597656 42.546875 -103.296875 L 61.5 -36.25 C 61.863281 -34.925781 61.894531 -33.90625 61.59375 -33.1875 C 61.289062 -32.476562 60.554688 -31.800781 59.390625 -31.15625 C 53.441406 -27.851562 49.640625 -27.054688 47.984375 -28.765625 L 22.71875 -53.46875 L 31.53125 -19.859375 C 31.925781 -18.484375 31.96875 -17.414062 31.65625 -16.65625 C 31.34375 -15.90625 30.628906 -15.222656 29.515625 -14.609375 C 23.566406 -11.304688 19.789062 -10.519531 18.1875 -12.25 L -31.1875 -62.765625 C -31.320312 -62.890625 -31.4375 -63.039062 -31.53125 -63.21875 Z M -31.53125 -63.21875 "/></g></g></g><g clip-path="url(#8cb9b9ead9)"><g fill="#000000" fill-opacity="1"><g transform="translate(167.092012, 85.848019)"><g><path d="M -14.0625 -32.671875 C -18.957031 -41.523438 -22.019531 -48.695312 -23.25 -54.1875 C -24.488281 -59.675781 -24.113281 -64.207031 -22.125 -67.78125 C -20.132812 -71.363281 -16.273438 -74.738281 -10.546875 -77.90625 C -4.816406 -81.082031 0.0820312 -82.5625 4.15625 -82.34375 C 8.238281 -82.132812 12.265625 -80.054688 16.234375 -76.109375 C 20.203125 -72.171875 24.648438 -65.75 29.578125 -56.84375 C 36.328125 -44.664062 39.4375 -35.375 38.90625 -28.96875 C 38.375 -22.5625 33.960938 -17.0625 25.671875 -12.46875 C 17.390625 -7.882812 10.382812 -7.0625 4.65625 -10 C -1.070312 -12.9375 -7.3125 -20.492188 -14.0625 -32.671875 Z M -8.75 -55.9375 C -7.925781 -53.675781 -6.945312 -51.457031 -5.8125 -49.28125 C -4.6875 -47.113281 -2.707031 -43.46875 0.125 -38.34375 C 2.96875 -33.226562 5.507812 -29.035156 7.75 -25.765625 C 10 -22.503906 11.703125 -20.488281 12.859375 -19.71875 C 14.015625 -18.945312 15.066406 -18.820312 16.015625 -19.34375 C 20.898438 -22.050781 23.820312 -24.320312 24.78125 -26.15625 C 25.113281 -26.851562 25.296875 -27.789062 25.328125 -28.96875 C 25.359375 -30.15625 25.222656 -31.285156 24.921875 -32.359375 C 24.628906 -33.429688 24.054688 -34.925781 23.203125 -36.84375 C 22.097656 -39.363281 19.828125 -43.722656 16.390625 -49.921875 C 12.953125 -56.117188 10.082031 -60.929688 7.78125 -64.359375 C 5.488281 -67.785156 3.691406 -69.988281 2.390625 -70.96875 C 1.085938 -71.957031 -0.0351562 -72.1875 -0.984375 -71.65625 C -3.210938 -70.425781 -4.953125 -69.332031 -6.203125 -68.375 C -7.453125 -67.425781 -8.394531 -66.285156 -9.03125 -64.953125 C -9.675781 -63.617188 -9.992188 -62.347656 -9.984375 -61.140625 C -9.984375 -59.941406 -9.570312 -58.207031 -8.75 -55.9375 Z M -8.75 -55.9375 "/></g></g></g></g></g></g></g></svg>